<svg xmlns="http://www.w3.org/2000/svg" width="40" height="40" viewBox="0 0 40 40"><g><g><path fill="#fff" d="M40 20c0 11.029-8.972 20-20 20S0 31.03 0 20 8.972 0 20 0s20 8.971 20 20zm-1.538 0C38.462 9.82 30.179 1.538 20 1.538 9.82 1.538 1.538 9.821 1.538 20 1.538 30.18 9.821 38.46 20 38.46c10.18 0 18.462-8.282 18.462-18.461zM27.467 13.62L21.087 20l6.38 6.38a.769.769 0 1 1-1.088 1.087L20 21.087l-6.38 6.38a.768.768 0 1 1-1.087-1.088l6.38-6.38-6.38-6.378a.769.769 0 1 1 1.088-1.088L20 18.913l6.38-6.38a.769.769 0 1 1 1.088 1.088z"/></g></g></svg>