<?xml version="1.0" encoding="UTF-8"?>
<!DOCTYPE svg PUBLIC "-//W3C//DTD SVG 1.1//EN" "http://www.w3.org/Graphics/SVG/1.1/DTD/svg11.dtd">
<!-- Creator: CorelDRAW 2018 (64-Bit) -->
<svg xmlns="http://www.w3.org/2000/svg" xml:space="preserve" width="625px" height="146px" version="1.1" style="shape-rendering:geometricPrecision; text-rendering:geometricPrecision; image-rendering:optimizeQuality; fill-rule:evenodd; clip-rule:evenodd"
viewBox="0 0 184.01 42.93"
 xmlns:xlink="http://www.w3.org/1999/xlink">
 <defs>
  <style type="text/css">
   <![CDATA[
    .fil2 {fill:none;fill-rule:nonzero}
    .fil1 {fill:#09263A;fill-rule:nonzero}
    .fil0 {fill:#49B2F7;fill-rule:nonzero}
    .fil3 {fill:white;fill-rule:nonzero}
   ]]>
  </style>
 </defs>
 <g id="Слой_x0020_1">
  <metadata id="CorelCorpID_0Corel-Layer"/>
  <g id="_2624968996192">
   <g>
    <path class="fil0" d="M63.46 22.1l-4.71 0 0 -20.61 4.71 0 0 7.89 2.59 0c0.51,-2.47 1.66,-4.46 3.44,-5.95 1.79,-1.53 4.02,-2.29 6.69,-2.29 3.18,0 5.75,0.97 7.71,2.91 1.96,1.9 2.94,4.49 2.94,7.74 0,3.1 -0.99,5.67 -2.97,7.69 -1.98,1.98 -4.54,2.97 -7.68,2.97 -2.59,0 -4.84,-0.78 -6.74,-2.33 -1.91,-1.55 -3.07,-3.66 -3.48,-6.32l-2.5 0 0 8.3zm7.36 -10.31c0,1.77 0.54,3.25 1.62,4.45 1.08,1.2 2.37,1.79 3.88,1.79 1.83,0 3.2,-0.56 4.13,-1.67 0.92,-1.12 1.38,-2.64 1.38,-4.57 0,-1.88 -0.5,-3.39 -1.5,-4.53 -1,-1.14 -2.34,-1.71 -4.01,-1.71 -1.59,0 -2.9,0.58 -3.94,1.74 -1.04,1.16 -1.56,2.66 -1.56,4.5z"/>
    <path class="fil1" d="M93.02 22.04l0 -20.49c2.29,-0.12 4.37,-0.18 6.24,-0.18 2.27,0 4,0.46 5.16,1.37 1.17,0.91 1.75,2.16 1.75,3.75 0,2.03 -0.78,3.56 -2.35,4.6l0 0.06c0.88,0.33 1.59,0.9 2.13,1.7 0.54,0.81 0.81,1.81 0.81,3.01 0,2.06 -0.72,3.64 -2.17,4.74 -1.44,1.07 -3.32,1.61 -5.66,1.61 -2.73,0 -4.7,-0.05 -5.91,-0.17zm6.53 -8.27l-1.82 0 0 3.85c0.43,0.12 0.96,0.18 1.59,0.18 1.82,0 2.73,-0.73 2.73,-2.18 0,-1.24 -0.83,-1.85 -2.5,-1.85zm-0.35 -7.98c-0.36,0 -0.85,0.04 -1.47,0.12l0 3.73 1.56 0c1.45,0 2.17,-0.66 2.17,-2 0,-0.57 -0.21,-1.02 -0.64,-1.35 -0.43,-0.34 -0.97,-0.5 -1.62,-0.5zm27.58 3.5l-9.12 12.81 -4.13 0 0 -20.61 4.71 0 0 12.81 9.13 -12.81 4.12 0 0 20.61 -4.71 0 0 -12.81zm28.65 12.81l-4.72 0 0 -16.19 -4.53 0 -0.44 3.88c-0.41,3.57 -1,6.31 -1.75,8.2 -0.76,1.89 -1.67,3.13 -2.74,3.69 -1.07,0.57 -2.46,0.71 -4.17,0.42l0.09 -4.71c0.44,0.08 0.79,0.07 1.08,-0.02 0.28,-0.09 0.59,-0.33 0.93,-0.72 0.33,-0.41 0.63,-1.03 0.91,-1.85 0.61,-1.77 1.07,-4.83 1.38,-9.19l0.3 -4.12 13.66 0 0 20.61zm21.9 -5.57l1.79 3.54c-0.63,0.7 -1.56,1.28 -2.79,1.73 -1.22,0.43 -2.53,0.65 -3.92,0.65 -3.2,0 -5.8,-0.97 -7.8,-2.91 -2,-1.99 -3,-4.57 -3,-7.75 0,-3.1 0.94,-5.65 2.82,-7.65 1.89,-2 4.54,-3 7.95,-3 1.3,0 2.5,0.19 3.62,0.59 1.12,0.39 2.01,0.91 2.68,1.56l-2.09 3.53c-1.37,-0.85 -2.78,-1.27 -4.21,-1.27 -1.67,0 -3.05,0.55 -4.15,1.65 -1.08,1.08 -1.62,2.61 -1.62,4.59 0,1.81 0.58,3.31 1.74,4.51 1.16,1.16 2.66,1.73 4.5,1.73 1.65,0 3.14,-0.5 4.48,-1.5z"/>
   </g>
   <path class="fil1" d="M59.53 39.69l-0.64 0 0 -1.67 0.6 0c0.17,-0.23 0.35,-0.66 0.54,-1.3 0.19,-0.64 0.31,-1.49 0.37,-2.53l0.06 -1.12 3.28 0 0 4.95 0.76 0 0 1.67 -0.64 0 0 -1.03 -4.33 0 0 1.03zm1.58 -5.98l-0.07 1c-0.05,0.82 -0.17,1.55 -0.34,2.17 -0.17,0.58 -0.32,0.96 -0.46,1.14l2.83 0 0 -4.31 -1.96 0zm8.41 4.95l-3.23 0 0 -5.59 3.15 0 0 0.64 -2.47 0 0 1.8 2.23 0 0 0.64 -2.23 0 0 1.87 2.55 0 0 0.64zm6.19 0l-0.68 0 0 -4.95 -2.02 0 -0.1 1.06c-0.06,0.69 -0.14,1.28 -0.24,1.77 -0.11,0.49 -0.21,0.88 -0.33,1.16 -0.12,0.28 -0.26,0.5 -0.41,0.65 -0.16,0.16 -0.31,0.25 -0.46,0.29 -0.15,0.04 -0.32,0.04 -0.51,0.02l0.01 -0.68c0.11,0.01 0.2,0 0.28,-0.03 0.08,-0.03 0.17,-0.12 0.27,-0.24 0.12,-0.14 0.22,-0.34 0.31,-0.6 0.21,-0.6 0.36,-1.57 0.46,-2.92l0.08 -1.12 3.34 0 0 5.59zm2.36 0l-0.68 0 2.39 -5.62 0.59 0 2.4 5.62 -0.73 0 -0.72 -1.69 -2.54 0 -0.71 1.69zm2.99 -2.33l-1 -2.39 -1.01 2.39 2.01 0zm6.61 2.33l-3.23 0 0 -5.59 3.15 0 0 0.64 -2.47 0 0 1.8 2.23 0 0 0.64 -2.23 0 0 1.87 2.55 0 0 0.64zm2.75 0l-0.68 0 0 -5.59 0.69 0 2.1 2.87 2 -2.87 0.65 0 0 5.59 -0.68 0 0 -4.52 -1.97 2.78 -0.11 0 -2 -2.75 0 4.49zm9.27 0l-0.68 0 2.4 -5.62 0.58 0 2.4 5.62 -0.73 0 -0.71 -1.69 -2.55 0 -0.71 1.69zm2.99 -2.33l-1 -2.39 -1.01 2.39 2.01 0zm3.38 2.32l0 -5.57c0.74,-0.02 1.25,-0.03 1.53,-0.03 0.61,0 1.06,0.12 1.36,0.36 0.29,0.25 0.44,0.58 0.44,1.02 0,0.32 -0.09,0.6 -0.26,0.81 -0.17,0.22 -0.4,0.38 -0.7,0.48l0 0.02c0.36,0.06 0.65,0.2 0.85,0.43 0.21,0.23 0.31,0.52 0.31,0.89 0,0.53 -0.18,0.94 -0.54,1.21 -0.37,0.27 -0.86,0.41 -1.49,0.41 -0.61,0 -1.11,-0.01 -1.5,-0.03zm1.58 -2.54l-0.9 0 0 1.9c0.22,0.02 0.51,0.03 0.86,0.03 0.42,0 0.75,-0.08 0.97,-0.26 0.23,-0.17 0.34,-0.42 0.34,-0.76 0,-0.29 -0.11,-0.52 -0.33,-0.67 -0.22,-0.16 -0.53,-0.24 -0.94,-0.24zm-0.06 -2.42c-0.16,0 -0.44,0.01 -0.84,0.02l0 1.8 0.89 0c0.32,0 0.58,-0.08 0.78,-0.25 0.2,-0.16 0.3,-0.39 0.3,-0.68 0,-0.59 -0.38,-0.89 -1.13,-0.89zm5.32 0.02l-1.96 0 0 -0.64 4.59 0 0 0.64 -1.96 0 0 4.95 -0.67 0 0 -4.95zm3.56 2.16c0,-0.81 0.27,-1.49 0.81,-2.05 0.53,-0.55 1.21,-0.83 2.04,-0.83 0.81,0 1.49,0.27 2.03,0.81 0.54,0.54 0.81,1.23 0.81,2.07 0,0.81 -0.27,1.5 -0.81,2.05 -0.54,0.54 -1.22,0.82 -2.03,0.82 -0.82,0 -1.5,-0.27 -2.04,-0.81 -0.54,-0.54 -0.81,-1.22 -0.81,-2.06zm0.72 0c0,0.62 0.2,1.15 0.61,1.59 0.41,0.42 0.92,0.64 1.52,0.64 0.62,0 1.13,-0.22 1.53,-0.64 0.4,-0.43 0.6,-0.96 0.6,-1.59 0,-0.64 -0.21,-1.17 -0.62,-1.6 -0.41,-0.42 -0.91,-0.64 -1.51,-0.64 -0.61,0 -1.12,0.21 -1.53,0.63 -0.4,0.42 -0.6,0.96 -0.6,1.61zm9 3.82l-0.64 0 0 -1.67 0.6 0c0.17,-0.23 0.36,-0.66 0.54,-1.3 0.19,-0.64 0.32,-1.49 0.38,-2.53l0.05 -1.12 3.29 0 0 4.95 0.75 0 0 1.67 -0.63 0 0 -1.03 -4.34 0 0 1.03zm1.59 -5.98l-0.08 1c-0.05,0.82 -0.16,1.55 -0.34,2.17 -0.16,0.58 -0.32,0.96 -0.46,1.14l2.83 0 0 -4.31 -1.95 0zm4.67 2.16c0,-0.81 0.27,-1.49 0.8,-2.05 0.54,-0.55 1.22,-0.83 2.04,-0.83 0.82,0 1.5,0.27 2.04,0.81 0.54,0.54 0.81,1.23 0.81,2.07 0,0.81 -0.27,1.5 -0.81,2.05 -0.54,0.54 -1.22,0.82 -2.04,0.82 -0.81,0 -1.49,-0.27 -2.04,-0.81 -0.53,-0.54 -0.8,-1.22 -0.8,-2.06zm0.72 0c0,0.62 0.2,1.15 0.61,1.59 0.41,0.42 0.91,0.64 1.51,0.64 0.63,0 1.14,-0.22 1.54,-0.64 0.39,-0.43 0.59,-0.96 0.59,-1.59 0,-0.64 -0.2,-1.17 -0.61,-1.6 -0.41,-0.42 -0.92,-0.64 -1.52,-0.64 -0.61,0 -1.11,0.21 -1.52,0.63 -0.4,0.42 -0.6,0.96 -0.6,1.61zm10.81 1.73l0.27 0.51c-0.19,0.19 -0.44,0.35 -0.76,0.46 -0.32,0.11 -0.65,0.17 -1,0.17 -0.84,0 -1.52,-0.27 -2.05,-0.79 -0.52,-0.53 -0.78,-1.22 -0.78,-2.08 0,-0.83 0.25,-1.52 0.74,-2.05 0.5,-0.55 1.18,-0.83 2.04,-0.83 0.71,0 1.27,0.19 1.7,0.55l-0.31 0.51c-0.38,-0.28 -0.84,-0.42 -1.38,-0.42 -0.61,0 -1.11,0.21 -1.5,0.62 -0.38,0.41 -0.58,0.95 -0.58,1.62 0,0.66 0.2,1.2 0.6,1.61 0.41,0.41 0.94,0.62 1.58,0.62 0.54,0 1.02,-0.17 1.43,-0.5zm3.26 -3.89l-1.96 0 0 -0.64 4.59 0 0 0.64 -1.95 0 0 4.95 -0.68 0 0 -4.95zm7.93 -0.64l0.69 0 -1.93 4.31c-0.2,0.45 -0.41,0.77 -0.62,0.97 -0.22,0.2 -0.47,0.31 -0.77,0.31 -0.29,0 -0.51,-0.07 -0.68,-0.2l0.24 -0.58c0.14,0.1 0.28,0.15 0.43,0.15 0.27,0 0.5,-0.19 0.69,-0.57l0.09 -0.21 -2.52 -4.18 0.76 0 2.09 3.5 1.53 -3.5zm6.75 5.59l-0.68 0 0 -4.95 -3.03 0 0 4.95 -0.68 0 0 -5.59 4.39 0 0 5.59zm6.81 0l-0.67 0 0 -2.53 -3.07 0 0 2.53 -0.68 0 0 -5.59 0.68 0 0 2.42 3.07 0 0 -2.42 0.67 0 0 5.59zm7.46 0l-0.68 0 0 -5.59 0.68 0 0 5.59zm-3.69 -2.91c-0.19,0 -0.42,0.01 -0.7,0.04l0 2.22c0.43,0.02 0.66,0.02 0.67,0.02 0.95,0 1.42,-0.39 1.42,-1.18 0,-0.36 -0.12,-0.63 -0.36,-0.82 -0.24,-0.19 -0.58,-0.28 -1.03,-0.28zm-1.37 -2.68l0.67 0 0 2.08c0.38,-0.03 0.62,-0.04 0.74,-0.04 0.68,0 1.19,0.15 1.54,0.45 0.35,0.3 0.53,0.72 0.53,1.27 0,0.58 -0.19,1.04 -0.58,1.36 -0.39,0.32 -0.94,0.48 -1.64,0.48 -0.26,0 -0.49,0 -0.69,-0.01 -0.19,0 -0.38,0 -0.57,0l0 -5.59zm8.13 5.59l-0.68 0 0 -5.59 0.69 0 2.09 2.87 2.01 -2.87 0.65 0 0 5.59 -0.68 0 0 -4.52 -1.98 2.78 -0.1 0 -2 -2.75 0 4.49z"/>
  </g>
  <g id="_2624968999136">
   <g>
    <g>
     <g>
      <path class="fil2" d="M12.06 14.72l22.49 0c1.24,0 2.25,1.01 2.25,2.25l0 12.47c0,7.45 -6.04,13.49 -13.49,13.49 -7.46,0 -13.5,-6.04 -13.5,-13.49l0 -12.47c0,-1.24 1.01,-2.25 2.25,-2.25z"/>
     </g>
     <path class="fil0" d="M23.31 42.93c-7.44,0 -13.5,-6.05 -13.5,-13.49l0 -11.02c0,-2.04 1.66,-3.7 3.7,-3.7l19.59 0c2.04,0 3.7,1.66 3.7,3.7l0 11.02c0,7.44 -6.06,13.49 -13.49,13.49zm-9.8 -24.53l0 0c-0.01,0 -0.02,0.01 -0.02,0.02l0 11.02c0,5.41 4.4,9.81 9.82,9.81 5.41,0 9.81,-4.4 9.81,-9.81l0 -11.02 -19.61 -0.02z"/>
    </g>
    <path class="fil3" d="M9.2 14.72l28.21 0c5.08,0 9.2,4.12 9.2,9.2 0,5.08 -4.12,9.2 -9.2,9.2l-28.21 0c-5.08,0 -9.2,-4.12 -9.2,-9.2 0,-5.08 4.12,-9.2 9.2,-9.2z"/>
    <g>
     <g>
      <path class="fil2" d="M23.46 0c7.56,0 13.68,6.13 13.68,13.68 0,0 0,0 0,0l0 10.57c0,0.51 -0.41,0.91 -0.91,0.91l-25.54 0c-0.51,0 -0.92,-0.4 -0.92,-0.91l0 -10.57c0,-7.55 6.13,-13.68 13.69,-13.68z"/>
     </g>
     <path class="fil0" d="M34.86 25.16l-22.81 0c-1.25,0 -2.27,-1.02 -2.28,-2.27l0 -9.21c0,-7.54 6.14,-13.68 13.69,-13.68 7.54,0 13.68,6.14 13.68,13.68l0 9.2c0,1.26 -1.02,2.28 -2.28,2.28zm-21.41 -3.68l0 0 20.01 0 0 -7.8c0,-5.51 -4.49,-10 -10,-10 -5.52,0 -10.01,4.49 -10.01,10l0 7.8z"/>
    </g>
    <polygon class="fil3" points="7.82,12.46 38.12,12.46 38.12,24.19 7.82,24.19 "/>
    <g>
     <g>
      <path class="fil2" d="M7.36 11.48l32.2 0c4.06,0 7.36,3.3 7.36,7.36l0 5.83c0,1.35 -1.1,2.45 -2.46,2.45l-42.01 0c-1.35,0 -2.45,-1.1 -2.45,-2.45l0 -5.83c0,-4.06 3.29,-7.36 7.36,-7.36z"/>
     </g>
     <path class="fil0" d="M44.46 27.12l-42.01 0c-1.35,0 -2.45,-1.1 -2.45,-2.45l0 -5.83c0,-4.06 3.3,-7.36 7.36,-7.36l32.2 0c4.06,0 7.36,3.3 7.36,7.36l0 5.83c0,1.35 -1.1,2.45 -2.46,2.45zm-40.78 -3.68l0 0 39.56 0 0 -4.6c0,-2.03 -1.65,-3.68 -3.68,-3.68l-32.2 0c-2.03,0 -3.68,1.65 -3.68,3.68l0 4.6z"/>
    </g>
    <g>
     <path class="fil3" d="M13.2 17.35c3.5,0 6.35,2.84 6.35,6.35 0,3.51 -2.85,6.35 -6.35,6.35 -3.51,0 -6.36,-2.84 -6.36,-6.35 0,-3.51 2.85,-6.35 6.36,-6.35z"/>
     <path class="fil0" d="M13.2 30.05c-3.51,0 -6.36,-2.85 -6.36,-6.35 0,-3.5 2.85,-6.35 6.36,-6.35 3.5,0 6.35,2.85 6.35,6.35 0,3.5 -2.85,6.35 -6.35,6.35zm0 -9.02l0 0c-1.48,0 -2.68,1.2 -2.68,2.67 0,1.47 1.2,2.67 2.68,2.67 1.47,0 2.67,-1.2 2.67,-2.67 0,-1.47 -1.2,-2.67 -2.67,-2.67z"/>
    </g>
    <g>
     <path class="fil3" d="M33.72 17.35c3.51,0 6.36,2.84 6.36,6.35 0,3.51 -2.85,6.35 -6.36,6.35 -3.51,0 -6.35,-2.84 -6.35,-6.35 0,-3.51 2.84,-6.35 6.35,-6.35z"/>
     <path class="fil0" d="M33.72 30.05c-3.5,0 -6.35,-2.85 -6.35,-6.35 0,-3.5 2.85,-6.35 6.35,-6.35 3.51,0 6.36,2.85 6.36,6.35 0,3.5 -2.85,6.35 -6.36,6.35zm0 -9.02l0 0c-1.47,0 -2.67,1.2 -2.67,2.67 0,1.47 1.2,2.67 2.67,2.67 1.48,0 2.68,-1.2 2.68,-2.67 0,-1.47 -1.2,-2.67 -2.68,-2.67z"/>
    </g>
   </g>
  </g>
 </g>
</svg>
